<mxfile host="Electron" modified="2023-10-19T12:57:24.611Z" agent="Mozilla/5.0 (Macintosh; Intel Mac OS X 10_15_7) AppleWebKit/537.36 (KHTML, like Gecko) draw.io/22.0.3 Chrome/114.0.5735.289 Electron/25.8.4 Safari/537.36" etag="2limkmjDcNHB8ESUQRPV" version="22.0.3" type="device">
  <diagram name="lvm-escenari1" id="KQXMWXKt55iKvSPmApP7">
    <mxGraphModel dx="460" dy="2059" grid="1" gridSize="10" guides="1" tooltips="1" connect="1" arrows="1" fold="1" page="1" pageScale="1" pageWidth="827" pageHeight="1169" math="0" shadow="0">
      <root>
        <mxCell id="0" />
        <mxCell id="1" parent="0" />
        <mxCell id="X-8KPxaWrcusCLUO8LVc-70" value="" style="rounded=0;whiteSpace=wrap;html=1;fillColor=none;dashed=1;strokeWidth=2;" vertex="1" parent="1">
          <mxGeometry x="197.06" y="-240.38" width="432.94" height="152.46" as="geometry" />
        </mxCell>
        <mxCell id="X-8KPxaWrcusCLUO8LVc-62" value="" style="rounded=0;whiteSpace=wrap;html=1;fillColor=none;dashed=1;strokeWidth=2;" vertex="1" parent="1">
          <mxGeometry x="196.93" y="-72.46" width="432.94" height="152.46" as="geometry" />
        </mxCell>
        <mxCell id="X-8KPxaWrcusCLUO8LVc-61" value="" style="rounded=0;whiteSpace=wrap;html=1;fillColor=none;dashed=1;strokeWidth=2;" vertex="1" parent="1">
          <mxGeometry x="197.06" y="120" width="432.94" height="73" as="geometry" />
        </mxCell>
        <mxCell id="X-8KPxaWrcusCLUO8LVc-60" value="" style="rounded=0;whiteSpace=wrap;html=1;fillColor=none;dashed=1;strokeWidth=2;" vertex="1" parent="1">
          <mxGeometry x="197.06" y="210" width="432.94" height="220" as="geometry" />
        </mxCell>
        <mxCell id="X-8KPxaWrcusCLUO8LVc-1" value="/dev/vda" style="sketch=0;pointerEvents=1;shadow=0;dashed=0;html=1;strokeColor=none;fillColor=#505050;labelPosition=center;verticalLabelPosition=bottom;verticalAlign=top;outlineConnect=0;align=center;shape=mxgraph.office.devices.hard_disk;fontSize=14;" vertex="1" parent="1">
          <mxGeometry x="260" y="340" width="40" height="54" as="geometry" />
        </mxCell>
        <mxCell id="X-8KPxaWrcusCLUO8LVc-2" value="/dev/vdb" style="sketch=0;pointerEvents=1;shadow=0;dashed=0;html=1;strokeColor=none;fillColor=#505050;labelPosition=center;verticalLabelPosition=bottom;verticalAlign=top;outlineConnect=0;align=center;shape=mxgraph.office.devices.hard_disk;fontSize=14;" vertex="1" parent="1">
          <mxGeometry x="340" y="340" width="40" height="54" as="geometry" />
        </mxCell>
        <mxCell id="X-8KPxaWrcusCLUO8LVc-3" value="/dev/vdc" style="sketch=0;pointerEvents=1;shadow=0;dashed=0;html=1;strokeColor=none;fillColor=#505050;labelPosition=center;verticalLabelPosition=bottom;verticalAlign=top;outlineConnect=0;align=center;shape=mxgraph.office.devices.hard_disk;fontSize=14;" vertex="1" parent="1">
          <mxGeometry x="420" y="340" width="40" height="54" as="geometry" />
        </mxCell>
        <mxCell id="X-8KPxaWrcusCLUO8LVc-4" value="/dev/vdd" style="sketch=0;pointerEvents=1;shadow=0;dashed=0;html=1;strokeColor=none;fillColor=#505050;labelPosition=center;verticalLabelPosition=bottom;verticalAlign=top;outlineConnect=0;align=center;shape=mxgraph.office.devices.hard_disk;fontSize=14;" vertex="1" parent="1">
          <mxGeometry x="500" y="340" width="40" height="54" as="geometry" />
        </mxCell>
        <mxCell id="X-8KPxaWrcusCLUO8LVc-5" value="/dev/vde" style="sketch=0;pointerEvents=1;shadow=0;dashed=0;html=1;strokeColor=none;fillColor=#505050;labelPosition=center;verticalLabelPosition=bottom;verticalAlign=top;outlineConnect=0;align=center;shape=mxgraph.office.devices.hard_disk;fontSize=14;" vertex="1" parent="1">
          <mxGeometry x="570" y="340" width="40" height="54" as="geometry" />
        </mxCell>
        <mxCell id="X-8KPxaWrcusCLUO8LVc-30" style="edgeStyle=orthogonalEdgeStyle;rounded=0;orthogonalLoop=1;jettySize=auto;html=1;entryX=0.5;entryY=1;entryDx=0;entryDy=0;fontSize=14;" edge="1" parent="1" source="X-8KPxaWrcusCLUO8LVc-7" target="X-8KPxaWrcusCLUO8LVc-28">
          <mxGeometry relative="1" as="geometry" />
        </mxCell>
        <mxCell id="X-8KPxaWrcusCLUO8LVc-7" value="/dev/vda1" style="image;aspect=fixed;perimeter=ellipsePerimeter;html=1;align=center;shadow=0;dashed=0;spacingTop=3;image=img/lib/active_directory/database_partition_2.svg;fontSize=14;" vertex="1" parent="1">
          <mxGeometry x="255" y="270" width="50" height="37" as="geometry" />
        </mxCell>
        <mxCell id="X-8KPxaWrcusCLUO8LVc-8" value="/dev/vdb1&lt;br style=&quot;font-size: 14px;&quot;&gt;" style="image;aspect=fixed;perimeter=ellipsePerimeter;html=1;align=center;shadow=0;dashed=0;spacingTop=3;image=img/lib/active_directory/database_partition_2.svg;fontSize=14;" vertex="1" parent="1">
          <mxGeometry x="335" y="270" width="50" height="37" as="geometry" />
        </mxCell>
        <mxCell id="X-8KPxaWrcusCLUO8LVc-33" style="edgeStyle=orthogonalEdgeStyle;rounded=0;orthogonalLoop=1;jettySize=auto;html=1;fontSize=14;" edge="1" parent="1" source="X-8KPxaWrcusCLUO8LVc-12">
          <mxGeometry relative="1" as="geometry">
            <mxPoint x="480" y="160" as="targetPoint" />
          </mxGeometry>
        </mxCell>
        <mxCell id="X-8KPxaWrcusCLUO8LVc-12" value="md0 (RAID 1)" style="rounded=0;whiteSpace=wrap;html=1;fillColor=#f0a30a;fontColor=#000000;strokeColor=#BD7000;fontSize=14;" vertex="1" parent="1">
          <mxGeometry x="420" y="210" width="190" height="20" as="geometry" />
        </mxCell>
        <mxCell id="X-8KPxaWrcusCLUO8LVc-17" style="edgeStyle=orthogonalEdgeStyle;rounded=0;orthogonalLoop=1;jettySize=auto;html=1;entryX=0.5;entryY=1;entryDx=0;entryDy=0;fontSize=14;" edge="1" parent="1" source="X-8KPxaWrcusCLUO8LVc-13" target="X-8KPxaWrcusCLUO8LVc-12">
          <mxGeometry relative="1" as="geometry" />
        </mxCell>
        <mxCell id="X-8KPxaWrcusCLUO8LVc-13" value="/dev/vdc1" style="image;aspect=fixed;perimeter=ellipsePerimeter;html=1;align=center;shadow=0;dashed=0;spacingTop=3;image=img/lib/active_directory/database_partition_2.svg;fontSize=14;" vertex="1" parent="1">
          <mxGeometry x="415" y="270" width="50" height="37" as="geometry" />
        </mxCell>
        <mxCell id="X-8KPxaWrcusCLUO8LVc-18" style="edgeStyle=orthogonalEdgeStyle;rounded=0;orthogonalLoop=1;jettySize=auto;html=1;entryX=0.5;entryY=1;entryDx=0;entryDy=0;fontSize=14;" edge="1" parent="1" source="X-8KPxaWrcusCLUO8LVc-14" target="X-8KPxaWrcusCLUO8LVc-12">
          <mxGeometry relative="1" as="geometry" />
        </mxCell>
        <mxCell id="X-8KPxaWrcusCLUO8LVc-14" value="/dev/vdd1" style="image;aspect=fixed;perimeter=ellipsePerimeter;html=1;align=center;shadow=0;dashed=0;spacingTop=3;image=img/lib/active_directory/database_partition_2.svg;fontSize=14;" vertex="1" parent="1">
          <mxGeometry x="490" y="270" width="50" height="37" as="geometry" />
        </mxCell>
        <mxCell id="X-8KPxaWrcusCLUO8LVc-19" style="edgeStyle=orthogonalEdgeStyle;rounded=0;orthogonalLoop=1;jettySize=auto;html=1;entryX=0.5;entryY=1;entryDx=0;entryDy=0;fontSize=14;" edge="1" parent="1" source="X-8KPxaWrcusCLUO8LVc-15" target="X-8KPxaWrcusCLUO8LVc-12">
          <mxGeometry relative="1" as="geometry" />
        </mxCell>
        <mxCell id="X-8KPxaWrcusCLUO8LVc-15" value="/dev/vde1" style="image;aspect=fixed;perimeter=ellipsePerimeter;html=1;align=center;shadow=0;dashed=0;spacingTop=3;image=img/lib/active_directory/database_partition_2.svg;fontSize=14;" vertex="1" parent="1">
          <mxGeometry x="570" y="270" width="50" height="37" as="geometry" />
        </mxCell>
        <mxCell id="X-8KPxaWrcusCLUO8LVc-20" value="Hardware" style="text;html=1;strokeColor=none;fillColor=none;align=center;verticalAlign=middle;whiteSpace=wrap;rounded=0;rotation=-90;fontSize=14;" vertex="1" parent="1">
          <mxGeometry x="190" y="364" width="60" height="30" as="geometry" />
        </mxCell>
        <mxCell id="X-8KPxaWrcusCLUO8LVc-22" value="Volums FÃ­sics" style="text;html=1;strokeColor=none;fillColor=none;align=center;verticalAlign=middle;whiteSpace=wrap;rounded=0;rotation=-90;fontSize=14;" vertex="1" parent="1">
          <mxGeometry x="610" y="310" width="90" height="30" as="geometry" />
        </mxCell>
        <mxCell id="X-8KPxaWrcusCLUO8LVc-25" value="Particions" style="text;html=1;strokeColor=none;fillColor=none;align=center;verticalAlign=middle;whiteSpace=wrap;rounded=0;rotation=-90;fontSize=14;" vertex="1" parent="1">
          <mxGeometry x="190" y="280" width="60" height="30" as="geometry" />
        </mxCell>
        <mxCell id="X-8KPxaWrcusCLUO8LVc-31" style="edgeStyle=orthogonalEdgeStyle;rounded=0;orthogonalLoop=1;jettySize=auto;html=1;entryX=0.5;entryY=1;entryDx=0;entryDy=0;fontSize=14;" edge="1" parent="1" source="X-8KPxaWrcusCLUO8LVc-26" target="X-8KPxaWrcusCLUO8LVc-27">
          <mxGeometry relative="1" as="geometry" />
        </mxCell>
        <mxCell id="X-8KPxaWrcusCLUO8LVc-26" value="" style="sketch=0;outlineConnect=0;fontColor=#232F3E;gradientColor=none;fillColor=#DD344C;strokeColor=none;dashed=0;verticalLabelPosition=bottom;verticalAlign=top;align=center;html=1;fontSize=14;fontStyle=0;aspect=fixed;pointerEvents=1;shape=mxgraph.aws4.encrypted_data;" vertex="1" parent="1">
          <mxGeometry x="348.87" y="242" width="22.26" height="28" as="geometry" />
        </mxCell>
        <mxCell id="X-8KPxaWrcusCLUO8LVc-68" style="edgeStyle=orthogonalEdgeStyle;rounded=0;orthogonalLoop=1;jettySize=auto;html=1;entryX=0;entryY=0.5;entryDx=0;entryDy=0;" edge="1" parent="1" source="X-8KPxaWrcusCLUO8LVc-27" target="X-8KPxaWrcusCLUO8LVc-42">
          <mxGeometry relative="1" as="geometry">
            <Array as="points">
              <mxPoint x="480" y="100" />
              <mxPoint x="400" y="100" />
            </Array>
          </mxGeometry>
        </mxCell>
        <mxCell id="X-8KPxaWrcusCLUO8LVc-69" style="edgeStyle=orthogonalEdgeStyle;rounded=0;orthogonalLoop=1;jettySize=auto;html=1;" edge="1" parent="1" source="X-8KPxaWrcusCLUO8LVc-27" target="X-8KPxaWrcusCLUO8LVc-43">
          <mxGeometry relative="1" as="geometry">
            <Array as="points">
              <mxPoint x="480" y="100" />
              <mxPoint x="540" y="100" />
            </Array>
          </mxGeometry>
        </mxCell>
        <mxCell id="X-8KPxaWrcusCLUO8LVc-27" value="datavg" style="rounded=0;whiteSpace=wrap;html=1;fontSize=14;fillColor=#e3c800;fontColor=#000000;strokeColor=#B09500;" vertex="1" parent="1">
          <mxGeometry x="340" y="130" width="280" height="30" as="geometry" />
        </mxCell>
        <mxCell id="X-8KPxaWrcusCLUO8LVc-64" style="edgeStyle=orthogonalEdgeStyle;rounded=0;orthogonalLoop=1;jettySize=auto;html=1;entryX=0;entryY=0.5;entryDx=0;entryDy=0;" edge="1" parent="1" source="X-8KPxaWrcusCLUO8LVc-28" target="X-8KPxaWrcusCLUO8LVc-37">
          <mxGeometry relative="1" as="geometry" />
        </mxCell>
        <mxCell id="X-8KPxaWrcusCLUO8LVc-65" style="edgeStyle=orthogonalEdgeStyle;rounded=0;orthogonalLoop=1;jettySize=auto;html=1;" edge="1" parent="1" source="X-8KPxaWrcusCLUO8LVc-28" target="X-8KPxaWrcusCLUO8LVc-38">
          <mxGeometry relative="1" as="geometry" />
        </mxCell>
        <mxCell id="X-8KPxaWrcusCLUO8LVc-66" style="edgeStyle=orthogonalEdgeStyle;rounded=0;orthogonalLoop=1;jettySize=auto;html=1;entryX=0;entryY=0.5;entryDx=0;entryDy=0;" edge="1" parent="1" source="X-8KPxaWrcusCLUO8LVc-28" target="X-8KPxaWrcusCLUO8LVc-39">
          <mxGeometry relative="1" as="geometry" />
        </mxCell>
        <mxCell id="X-8KPxaWrcusCLUO8LVc-67" style="edgeStyle=orthogonalEdgeStyle;rounded=0;orthogonalLoop=1;jettySize=auto;html=1;entryX=0;entryY=0.5;entryDx=0;entryDy=0;" edge="1" parent="1" source="X-8KPxaWrcusCLUO8LVc-28" target="X-8KPxaWrcusCLUO8LVc-40">
          <mxGeometry relative="1" as="geometry" />
        </mxCell>
        <mxCell id="X-8KPxaWrcusCLUO8LVc-28" value="rootvg" style="rounded=0;whiteSpace=wrap;html=1;fontSize=14;fillColor=#fa6800;fontColor=#000000;strokeColor=#C73500;" vertex="1" parent="1">
          <mxGeometry x="235" y="130" width="90" height="30" as="geometry" />
        </mxCell>
        <mxCell id="X-8KPxaWrcusCLUO8LVc-29" value="Grups de Volum" style="text;html=1;strokeColor=none;fillColor=none;align=center;verticalAlign=middle;whiteSpace=wrap;rounded=0;rotation=-90;fontSize=14;" vertex="1" parent="1">
          <mxGeometry x="610" y="140" width="90" height="30" as="geometry" />
        </mxCell>
        <mxCell id="X-8KPxaWrcusCLUO8LVc-36" value="Volums LÃ²gics" style="text;html=1;strokeColor=none;fillColor=none;align=center;verticalAlign=middle;whiteSpace=wrap;rounded=0;rotation=-90;fontSize=14;" vertex="1" parent="1">
          <mxGeometry x="610" y="-22.46" width="90" height="30" as="geometry" />
        </mxCell>
        <mxCell id="X-8KPxaWrcusCLUO8LVc-52" style="edgeStyle=orthogonalEdgeStyle;rounded=0;orthogonalLoop=1;jettySize=auto;html=1;entryX=0;entryY=0.5;entryDx=0;entryDy=0;fontSize=14;" edge="1" parent="1" source="X-8KPxaWrcusCLUO8LVc-37" target="X-8KPxaWrcusCLUO8LVc-48">
          <mxGeometry relative="1" as="geometry" />
        </mxCell>
        <mxCell id="X-8KPxaWrcusCLUO8LVc-37" value="/dev/rootvg/" style="rounded=0;whiteSpace=wrap;html=1;rotation=-90;fontSize=14;fillColor=#ffcd28;gradientColor=#ffa500;strokeColor=#d79b00;" vertex="1" parent="1">
          <mxGeometry x="185" y="-12.46" width="120" height="20" as="geometry" />
        </mxCell>
        <mxCell id="X-8KPxaWrcusCLUO8LVc-51" style="edgeStyle=orthogonalEdgeStyle;rounded=0;orthogonalLoop=1;jettySize=auto;html=1;entryX=0;entryY=0.5;entryDx=0;entryDy=0;fontSize=14;" edge="1" parent="1" source="X-8KPxaWrcusCLUO8LVc-38" target="X-8KPxaWrcusCLUO8LVc-47">
          <mxGeometry relative="1" as="geometry" />
        </mxCell>
        <mxCell id="X-8KPxaWrcusCLUO8LVc-38" value="/dev/rootvg/var" style="rounded=0;whiteSpace=wrap;html=1;rotation=-90;fontSize=14;fillColor=#ffcd28;gradientColor=#ffa500;strokeColor=#d79b00;" vertex="1" parent="1">
          <mxGeometry x="209" y="-12.46" width="120" height="20" as="geometry" />
        </mxCell>
        <mxCell id="X-8KPxaWrcusCLUO8LVc-53" style="edgeStyle=orthogonalEdgeStyle;rounded=0;orthogonalLoop=1;jettySize=auto;html=1;entryX=0;entryY=0.5;entryDx=0;entryDy=0;fontSize=14;" edge="1" parent="1" source="X-8KPxaWrcusCLUO8LVc-39" target="X-8KPxaWrcusCLUO8LVc-49">
          <mxGeometry relative="1" as="geometry" />
        </mxCell>
        <mxCell id="X-8KPxaWrcusCLUO8LVc-39" value="/dev/rootvg/log" style="rounded=0;whiteSpace=wrap;html=1;rotation=-90;fontSize=14;fillColor=#ffcd28;gradientColor=#ffa500;strokeColor=#d79b00;" vertex="1" parent="1">
          <mxGeometry x="231.87" y="-12.46" width="120" height="20" as="geometry" />
        </mxCell>
        <mxCell id="X-8KPxaWrcusCLUO8LVc-54" style="edgeStyle=orthogonalEdgeStyle;rounded=0;orthogonalLoop=1;jettySize=auto;html=1;entryX=0;entryY=0.5;entryDx=0;entryDy=0;fontSize=14;" edge="1" parent="1" source="X-8KPxaWrcusCLUO8LVc-40" target="X-8KPxaWrcusCLUO8LVc-50">
          <mxGeometry relative="1" as="geometry" />
        </mxCell>
        <mxCell id="X-8KPxaWrcusCLUO8LVc-40" value="/dev/rootvg/tmp" style="rounded=0;whiteSpace=wrap;html=1;rotation=-90;fontSize=14;fillColor=#ffcd28;gradientColor=#ffa500;strokeColor=#d79b00;" vertex="1" parent="1">
          <mxGeometry x="255.13" y="-12.46" width="120" height="20" as="geometry" />
        </mxCell>
        <mxCell id="X-8KPxaWrcusCLUO8LVc-56" style="edgeStyle=orthogonalEdgeStyle;rounded=0;orthogonalLoop=1;jettySize=auto;html=1;entryX=0;entryY=0.5;entryDx=0;entryDy=0;fontSize=14;" edge="1" parent="1" source="X-8KPxaWrcusCLUO8LVc-42" target="X-8KPxaWrcusCLUO8LVc-55">
          <mxGeometry relative="1" as="geometry" />
        </mxCell>
        <mxCell id="X-8KPxaWrcusCLUO8LVc-42" value="/dev/datavg/data" style="rounded=0;whiteSpace=wrap;html=1;rotation=-90;fontSize=14;fillColor=#fff2cc;gradientColor=#ffd966;strokeColor=#d6b656;" vertex="1" parent="1">
          <mxGeometry x="335" y="-29.96" width="130" height="65" as="geometry" />
        </mxCell>
        <mxCell id="X-8KPxaWrcusCLUO8LVc-59" style="edgeStyle=orthogonalEdgeStyle;rounded=0;orthogonalLoop=1;jettySize=auto;html=1;entryX=0;entryY=0.5;entryDx=0;entryDy=0;fontSize=14;" edge="1" parent="1" source="X-8KPxaWrcusCLUO8LVc-43" target="X-8KPxaWrcusCLUO8LVc-58">
          <mxGeometry relative="1" as="geometry" />
        </mxCell>
        <mxCell id="X-8KPxaWrcusCLUO8LVc-43" value="/dev/datavg/backup" style="rounded=0;whiteSpace=wrap;html=1;rotation=-90;fontSize=14;fillColor=#fff2cc;gradientColor=#ffd966;strokeColor=#d6b656;" vertex="1" parent="1">
          <mxGeometry x="472.5" y="-32.46" width="135" height="65" as="geometry" />
        </mxCell>
        <mxCell id="X-8KPxaWrcusCLUO8LVc-44" value="Sistema de Fitxers" style="text;html=1;strokeColor=none;fillColor=none;align=center;verticalAlign=middle;whiteSpace=wrap;rounded=0;rotation=-90;fontSize=14;" vertex="1" parent="1">
          <mxGeometry x="610" y="-162.46" width="90" height="30" as="geometry" />
        </mxCell>
        <mxCell id="X-8KPxaWrcusCLUO8LVc-47" value="/var (EXT4)" style="rounded=0;whiteSpace=wrap;html=1;rotation=-90;fontSize=14;fillColor=#1ba1e2;fontColor=#ffffff;strokeColor=#006EAF;" vertex="1" parent="1">
          <mxGeometry x="220.93" y="-174.15" width="96.13" height="20" as="geometry" />
        </mxCell>
        <mxCell id="X-8KPxaWrcusCLUO8LVc-48" value="/ (XFS)" style="rounded=0;whiteSpace=wrap;html=1;rotation=-90;fontSize=14;fillColor=#60a917;fontColor=#ffffff;strokeColor=#2D7600;" vertex="1" parent="1">
          <mxGeometry x="196.93" y="-174.15" width="96.13" height="20" as="geometry" />
        </mxCell>
        <mxCell id="X-8KPxaWrcusCLUO8LVc-49" value="/log (EXT4)" style="rounded=0;whiteSpace=wrap;html=1;rotation=-90;fontSize=14;fillColor=#6a00ff;fontColor=#ffffff;strokeColor=#3700CC;" vertex="1" parent="1">
          <mxGeometry x="243.87" y="-174.15" width="96.13" height="20" as="geometry" />
        </mxCell>
        <mxCell id="X-8KPxaWrcusCLUO8LVc-50" value="/tmp (EXT4)" style="rounded=0;whiteSpace=wrap;html=1;rotation=-90;fontSize=14;fillColor=#d80073;fontColor=#ffffff;strokeColor=#A50040;" vertex="1" parent="1">
          <mxGeometry x="267.06" y="-174.15" width="96.13" height="20" as="geometry" />
        </mxCell>
        <mxCell id="X-8KPxaWrcusCLUO8LVc-55" value="/home (XFS)" style="rounded=0;whiteSpace=wrap;html=1;rotation=-90;fontSize=14;fillColor=#f0a30a;fontColor=#000000;strokeColor=#BD7000;" vertex="1" parent="1">
          <mxGeometry x="351.93" y="-174.15" width="96.13" height="20" as="geometry" />
        </mxCell>
        <mxCell id="X-8KPxaWrcusCLUO8LVc-58" value="/mnt/backup (XFS)" style="rounded=0;whiteSpace=wrap;html=1;rotation=-90;fontSize=14;fillColor=#fa6800;fontColor=#000000;strokeColor=#C73500;" vertex="1" parent="1">
          <mxGeometry x="491.93" y="-180" width="96.13" height="31.69" as="geometry" />
        </mxCell>
      </root>
    </mxGraphModel>
  </diagram>
</mxfile>
